PathFileType	4	(X/Y/Z)	C:\Users\Basilio\Documents\Thesis Gigler\squatting_fais\c3dfiles\073\SLS_back_pre4\markers_experimental.trc
DataRate	CameraRate	NumFrames	NumMarkers	Units	OrigDataRate	OrigDataStartFrame	OrigNumFrames
200.000000	200.000000	4	61	mm	200.000000	1173	1341
Frame#	Time	FHD			LBHD			RBHD			C7			T10			CLAV			LSHO			LUUPA			LMUPA			LDUPA			LLEP			LMEP			LRAD			LUL			LRFIN			RSHO			RUPA1			RMUPA			RDUPA			RLEP			RMEP			RUL			RUFIN			LASI			RASI			USACR			LSACR			RSACR			LTHI1			LTHI2			LTHI3			LTHI4			LLFC			LTIB1			LTIB2			LTIB3			LTIB4			LLMAL			LMMAL			LHEE			LMT1			LMT2			LMT5			RTHI			RTHI2			RTHI3			RTHI4			RLFC			RMFC			RTIB1			RTIB2			RTIB3			RTIB4			RLMAL			RMMAL			RHEE			RMT1			RMT2			RMT5			LMFC			RRAD			
		X1	Y1	Z1	X2	Y2	Z2	X3	Y3	Z3	X4	Y4	Z4	X5	Y5	Z5	X6	Y6	Z6	X7	Y7	Z7	X8	Y8	Z8	X9	Y9	Z9	X10	Y10	Z10	X11	Y11	Z11	X12	Y12	Z12	X13	Y13	Z13	X14	Y14	Z14	X15	Y15	Z15	X16	Y16	Z16	X17	Y17	Z17	X18	Y18	Z18	X19	Y19	Z19	X20	Y20	Z20	X21	Y21	Z21	X22	Y22	Z22	X23	Y23	Z23	X24	Y24	Z24	X25	Y25	Z25	X26	Y26	Z26	X27	Y27	Z27	X28	Y28	Z28	X29	Y29	Z29	X30	Y30	Z30	X31	Y31	Z31	X32	Y32	Z32	X33	Y33	Z33	X34	Y34	Z34	X35	Y35	Z35	X36	Y36	Z36	X37	Y37	Z37	X38	Y38	Z38	X39	Y39	Z39	X40	Y40	Z40	X41	Y41	Z41	X42	Y42	Z42	X43	Y43	Z43	X44	Y44	Z44	X45	Y45	Z45	X46	Y46	Z46	X47	Y47	Z47	X48	Y48	Z48	X49	Y49	Z49	X50	Y50	Z50	X51	Y51	Z51	X52	Y52	Z52	X53	Y53	Z53	X54	Y54	Z54	X55	Y55	Z55	X56	Y56	Z56	X57	Y57	Z57	X58	Y58	Z58	X59	Y59	Z59	X60	Y60	Z60	X61	Y61	Z61	

1174	5.865	-153.0390319824219	1690.999389648438	-736.4382934570314	-286.3255920410157	1652.980590820313	-756.7523803710939	-303.7464599609376	1632.818359375	-622.5297851562501	-331.0221252441407	1534.010864257813	-686.0770874023439	-393.4439697265626	1204.37646484375	-719.6749877929689	-205.8576202392579	1450.1884765625	-692.6411132812501	-242.0731506347657	1505.833129882813	-830.6226196289065	-162.7487487792969	1436.402709960938	-931.1038208007815	-121.0912551879883	1454.68310546875	-909.059020996094	-100.2108230590821	1409.885375976563	-944.950378417969	3.681745767593385	1385.60791015625	-953.0408935546877	0.2180280536413193	1326.080078125	-913.8708496093752	259.8517456054688	1406.06005859375	-831.7916259765627	265.4166259765626	1407.978637695313	-906.3780517578127	342.4551391601563	1414.577392578125	-821.447692871094	-217.9165039062501	1481.108642578125	-545.0655517578126	-126.6861724853516	1362.419555664063	-461.1623535156251	-86.76947021484376	1384.259887695313	-476.6658020019532	-65.17041015625001	1330.546020507813	-461.1199645996095	25.18788719177247	1309.126220703125	-466.9544067382814	16.06842994689942	1262.734375	-535.5067749023439	283.2726440429688	1352.798217773438	-520.9499511718751	360.1702880859376	1377.093872070313	-601.3242797851564	-240.5955810546876	1032.554077148438	-851.4334716796877	-238.4190063476563	1027.08544921875	-602.1029663085939	-418.868621826172	1102.41748046875	-725.9540405273439	-431.6170959472657	1075.0205078125	-755.0537109375001	-437.0313415527345	1072.47705078125	-698.8672485351564	-244.5483398437501	708.4664306640626	-909.1560058593752	-198.3379974365235	638.0794677734376	-894.1593017578127	-157.1023864746094	647.3548583984376	-868.1480102539065	-221.5065612792969	582.8709106445314	-885.4410400390627	-229.1670074462891	536.7786254882814	-884.7188110351565	-370.2647094726563	415.7385253906251	-826.9260253906252	-430.1389465332032	454.6009216308595	-877.476257324219	-423.1995239257814	416.5866699218751	-856.8762207031252	-493.9849853515626	390.500946044922	-818.2043457031252	-626.9419555664064	408.5438232421876	-840.3424072265627	-594.3376464843751	408.5290527343751	-755.5711059570314	-665.1928710937501	462.4963684082032	-796.2788696289065	-623.5614624023439	245.2570190429688	-748.0014648437501	-629.4433593750001	239.7728729248047	-785.707214355469	-663.8746337890626	266.4159240722657	-837.6328735351565	-348.4957885742188	801.571716308594	-548.3494262695314	-315.8970336914063	744.1242065429689	-548.7967529296876	-282.2723693847657	744.3303833007814	-548.4844360351564	-343.5903015136719	670.2118530273439	-576.2610473632814	-332.5915527343751	518.8434448242189	-600.3795776367189	-314.0461730957032	515.2841186523439	-730.2753295898439	-286.2039489746094	360.3408508300782	-695.1894531250001	-320.7955322265626	274.8876342773438	-639.3789672851564	-291.0109558105469	275.1026916503907	-677.5699462890626	-307.4051818847657	234.1482543945313	-715.5966186523439	-362.4424133300782	96.81324768066409	-681.1522827148439	-351.7531738281251	131.954818725586	-762.6230468750001	-431.1841125488282	82.61754608154298	-742.1653442382814	-206.3977661132813	58.43204879760744	-757.4693603515626	-206.0828704833985	51.37637329101564	-716.4854736328126	-248.9024658203126	32.58625030517579	-668.8101196289064	-229.8316650390626	533.5091552734376	-749.4822998046876	nan	nan	nan	
1175	5.87	-153.0361480712891	1691.001953125	-736.1820068359376	-286.3893432617188	1652.99755859375	-756.5031738281251	-303.7909545898438	1632.719970703125	-622.3694458007814	-331.0269470214844	1533.928466796875	-685.9580688476564	-393.4273376464845	1204.290649414063	-719.7832031250001	-205.9732666015626	1450.075805664063	-692.5446166992189	-242.0585479736329	1505.863891601563	-830.4922485351565	-162.6602935791016	1436.414794921875	-931.0206298828127	-120.9542541503907	1454.797973632813	-908.8052978515627	-100.1753234863282	1409.898681640625	-944.8084716796877	3.787709712982179	1385.631469726563	-952.7980957031252	0.2571789920330048	1326.135131835938	-913.7085571289065	259.9637756347657	1406.059936523438	-831.5617675781252	265.4739074707032	1407.972900390625	-906.1877441406252	342.6084899902344	1414.508178710938	-821.2515869140627	-218.0257873535157	1480.977172851563	-544.9854736328126	-126.7707672119141	1362.203857421875	-461.1424560546876	-86.8400344848633	1384.113525390625	-476.5509643554689	-65.25411987304689	1330.39306640625	-461.036102294922	25.06409454345704	1308.984619140625	-466.853729248047	16.05175018310547	1262.661376953125	-535.5169677734376	283.1969909667969	1352.699462890625	-520.6943969726564	360.1990356445313	1377.013061523438	-601.0579223632814	-240.4683837890626	1032.4658203125	-851.5373535156252	-238.4099426269532	1027.06884765625	-602.1728515625001	-418.7952575683595	1102.394653320313	-726.0769042968751	-431.5691528320314	1074.9970703125	-755.2009277343751	-437.0033569335939	1072.439453125	-699.0103149414064	-244.741928100586	708.3366088867189	-909.4602050781252	-198.5249481201172	637.9146728515626	-894.476989746094	-157.2806243896485	647.1719360351564	-868.6665039062502	-221.7119903564454	582.7369995117189	-885.8735351562502	-229.4878997802735	536.5908203125001	-885.262145996094	-370.4688415527344	415.6237182617189	-827.1011962890627	-430.2958984375001	454.4853515625001	-877.7208251953127	-423.4231567382814	416.5037536621095	-857.1240844726565	-494.1949462890626	390.3665771484376	-818.4277343750002	-627.0930175781251	408.4631347656251	-840.3194580078127	-594.4531860351564	408.4047241210939	-755.6058959960939	-665.3386230468751	462.4070739746095	-796.2099609375002	-623.6603393554689	245.1604919433594	-748.0177001953126	-629.6730957031251	239.6722412109376	-785.6821289062502	-664.1274414062501	266.2730102539063	-837.5081176757815	-348.6834106445313	801.650817871094	-548.3734741210939	-316.0791625976563	744.1801757812501	-548.7333374023439	-282.4772338867188	744.3768310546876	-548.4041137695314	-343.7417907714844	670.2870483398439	-576.2482299804689	-332.7382202148438	518.9019165039064	-600.2949829101564	-314.0064697265626	515.2329101562501	-730.0654296875001	-286.2229309082032	360.3867492675782	-694.9703979492189	-320.9846191406251	274.9241638183594	-639.2370605468751	-291.0556030273438	275.1401367187501	-677.3072509765626	-307.4260253906251	234.1921539306641	-715.3611450195314	-362.4810791015626	96.75864410400393	-681.0646362304689	-351.7078857421876	131.9849090576172	-762.4796752929689	-431.170867919922	82.6273651123047	-742.1354370117189	-206.3770599365235	58.45415115356447	-757.4277343750001	-206.0866394042969	51.37885665893556	-716.4620971679689	-248.8904876708985	32.55278396606446	-668.7467651367189	-229.8904724121094	533.2808227539064	-749.9044189453126	nan	nan	nan	
1176	5.875	-152.8102264404297	1691.024780273438	-735.9827270507814	-286.3775329589844	1652.9814453125	-756.2569580078126	-303.8382873535157	1632.671752929688	-622.1621704101564	-331.1150207519532	1533.87158203125	-685.8556518554689	-393.4370422363282	1204.225830078125	-719.9439697265626	-206.0679626464844	1450.0224609375	-692.4064331054689	-242.0435638427735	1505.836059570313	-830.3192138671877	-162.5463562011719	1436.51904296875	-930.8777465820315	-121.0088272094727	1454.810791015625	-908.7250976562502	-100.1842422485352	1409.924926757813	-944.6367187500002	3.846973657608033	1385.672973632813	-952.576599121094	0.3109228610992432	1326.164306640625	-913.5395507812502	260.0277099609376	1406.022216796875	-831.379821777344	265.5963439941407	1407.958374023438	-905.9316406250002	342.6556701660157	1414.4599609375	-821.0664672851565	-218.1488037109376	1480.822631835938	-544.8260498046876	-126.905029296875	1362.036743164063	-461.071746826172	-86.92984771728517	1383.928955078125	-476.4890747070314	-65.31861114501955	1330.258544921875	-461.0352783203126	25.00210189819337	1308.843994140625	-466.768768310547	15.97196483612061	1262.587890625	-535.4963378906251	283.1129760742188	1352.599975585938	-520.4815673828126	360.2003479003907	1376.9189453125	-600.7858886718751	-240.3756713867188	1032.429565429688	-851.5540161132815	-238.4828033447266	1027.036376953125	-602.3016357421876	-418.750946044922	1102.366821289063	-726.2515258789064	-431.5722656250001	1074.965576171875	-755.3504638671876	-437.0216064453126	1072.440063476563	-699.1930541992189	-244.8619537353516	708.2885742187501	-909.7596435546877	-198.7435760498047	637.7646484375001	-894.9248657226565	-157.5408935546875	646.9908447265626	-869.2626953125002	-221.8386840820313	582.6488647460939	-886.3399047851565	-229.6500549316407	536.3989868164064	-885.6516723632815	-370.6973876953126	415.5317687988282	-827.547302246094	-430.6119079589845	454.3834228515626	-877.9736328125002	-422.7868041992189	416.0783081054689	-856.8135986328127	-494.3858032226564	390.2684936523439	-818.6362915039065	-627.3085327148439	408.3764648437501	-840.2486572265627	-594.5261230468751	408.3242187500001	-755.6624145507814	-665.5058593750001	462.304656982422	-796.1611938476565	-624.4915161132814	245.3114776611329	-747.2661132812501	-628.5384521484376	240.1336669921876	-785.8735961914065	-664.0284423828126	266.2052001953126	-837.611022949219	-348.8090209960938	801.7329711914065	-548.3741455078126	-316.2239990234376	744.2911987304689	-548.5950317382814	-282.6288146972657	744.4690551757814	-548.3325805664064	-343.8458862304688	670.3552856445314	-576.1793212890626	-332.9091186523438	518.9097290039064	-600.2568969726564	-313.8279418945313	515.7530517578126	-729.9324951171876	-286.2744140625001	360.4265747070313	-694.8209228515626	-321.0705566406251	274.9535827636719	-639.1239013671876	-291.1366882324219	275.1766357421876	-677.2157592773439	-307.4240722656251	234.1734619140626	-715.2363891601564	-362.4961853027344	96.75392150878909	-681.0002441406251	-351.7172241210938	132.0570526123047	-762.4375000000001	-431.1784057617189	82.63923645019533	-742.1362915039064	-206.3609771728516	58.46291351318361	-757.3636474609376	-206.090560913086	51.35938262939455	-716.4003295898439	-248.9039154052735	32.52050018310548	-668.7714233398439	-229.8990325927735	533.1147460937501	-750.2714233398439	nan	nan	nan	
1177	5.88	-152.7283172607422	1691.089721679688	-735.6972656250001	-286.3099365234376	1652.998901367188	-756.0367431640626	-303.8746948242188	1632.51953125	-621.9804687500001	-331.1941223144532	1533.790161132813	-685.8135986328126	-393.3789978027345	1204.218017578125	-720.0462036132814	-206.0634765625001	1449.968627929688	-692.2901000976564	-242.0687713623047	1505.843139648438	-830.2484130859377	-162.5720367431641	1436.515380859375	-931.0097656250002	-120.8641128540039	1454.844848632813	-908.5403442382815	-100.1493911743164	1409.9306640625	-944.480895996094	3.980336904525758	1385.687866210938	-952.3599853515627	0.3715453147888184	1326.166259765625	-913.4332275390627	260.0903930664063	1406.001708984375	-831.1677246093752	265.6894836425782	1407.921020507813	-905.662292480469	342.7021789550782	1414.42919921875	-820.8725585937502	-218.2729187011719	1480.67529296875	-544.7677001953126	-126.9602508544922	1361.84326171875	-460.9662170410157	-87.04004669189455	1383.75830078125	-476.3813476562501	-65.39412689208986	1330.094604492188	-460.9754638671876	24.89194679260255	1308.72021484375	-466.7029113769532	15.94010639190674	1262.521362304688	-535.4851074218751	283.0437927246094	1352.51416015625	-520.2322387695314	360.1688232421876	1376.841796875	-600.4404907226564	-240.2676849365235	1032.37158203125	-851.6197509765627	-238.5006256103516	1027.02734375	-602.3289184570314	-418.7198181152345	1102.325561523438	-726.3762817382814	-431.3833923339845	1074.873779296875	-755.5126953125001	-436.9926757812501	1072.423095703125	-699.3126220703126	-245.0043945312501	708.2137451171876	-910.0405273437502	-199.0063934326172	637.6055908203126	-895.348815917969	-157.7209930419922	646.8416748046876	-869.799987792969	-222.0774078369141	582.4833374023439	-886.7827758789065	-229.927963256836	536.2703247070314	-886.0737915039065	-370.9202575683594	415.3977050781251	-828.0252075195315	-430.8031616210939	454.3059997558595	-878.2083740234377	-422.9746093750001	416.0644531250001	-857.003112792969	-494.5883789062501	390.1954650878907	-818.766540527344	-627.5215454101564	408.2955017089845	-840.1569824218752	-594.6414794921876	408.2611389160157	-755.7077636718751	-665.6741943359376	462.2531738281251	-796.1082763671877	-623.8734741210939	244.997543334961	-748.0567626953126	-629.9008789062501	239.5689392089844	-785.6777954101565	-664.5654907226564	266.1416320800782	-837.495788574219	-348.8948974609376	801.791931152344	-548.4010009765626	-316.4151306152344	744.3713378906251	-548.5106201171876	-282.7153625488282	744.5441284179689	-548.2704467773439	-343.9591979980469	670.4083862304689	-576.1514892578126	-333.0076904296876	518.9607543945314	-600.2348022460939	-313.8390808105469	515.7317504882814	-729.8007202148439	-286.2986145019532	360.4637145996094	-694.7148437500001	-321.1407470703126	274.9437561035157	-639.0723876953126	-291.1694946289063	275.2117004394532	-677.0292358398439	-307.4836425781251	234.1875915527344	-715.1367797851564	-362.5238647460938	96.75757598876956	-680.9854125976564	-351.6821594238282	132.1339263916016	-762.3219604492189	-431.1864624023439	82.65706634521486	-742.1339111328126	-206.3961334228516	58.43812179565431	-757.3803100585939	-206.0923919677735	51.37397384643556	-716.3549194335939	-248.8883056640626	32.50463104248048	-668.7246704101564	-229.9695129394532	532.9003906250001	-750.7556152343751	nan	nan	nan	
